<svg width="512" height="512" viewBox="0 0 512 512" xmlns="http://www.w3.org/2000/svg">
  <rect width="512" height="512" rx="96" fill="#1a1a1a"/>
  <g transform="translate(60, 35.2491467576792) scale(1.3378839590443685)">
    


    <g>
        <path d="M175.98,139.17C175.76,139.48 175.51,139.91 175.19,140.28C168.13,148.44 160.38,155.94 152.88,163.68C130.39,186.88 107.85,210.03 85.33,233.19C66.64,252.4 47.95,271.6 29.26,290.81C24.93,295.26 20.61,299.71 16.28,304.16C16,304.45 15.72,304.74 15.43,305.03C15.02,305.45 14.78,305.37 14.64,304.79C13.89,301.75 13.11,298.73 12.35,295.69C9.26,283.28 6.19,270.87 3.06,258.47C2.87,257.7 3.19,257.43 3.61,257.03C6.88,253.91 10.15,250.78 13.42,247.65C45.94,216.61 78.46,185.57 110.98,154.53C129.02,137.31 147.06,120.08 165.1,102.85C165.27,102.69 165.43,102.52 165.6,102.37C166.25,101.8 166.32,101.8 166.55,102.66C167.65,106.8 168.73,110.94 169.8,115.09C171.75,122.65 173.68,130.22 175.62,137.78C175.72,138.17 175.82,138.56 175.98,139.17Z" style="fill:white;fill-rule:nonzero;"/>
        <path d="M39.78,326.02C33.71,326.03 28.47,323.78 23.88,319.96C22.06,318.45 20.45,316.68 18.8,314.98C17.73,313.88 17.68,313.93 18.94,312.64C21.53,309.98 24.11,307.32 26.7,304.65C60.07,270.35 93.43,236.04 126.8,201.74C144.64,183.4 162.47,165.07 180.31,146.73C180.55,146.48 180.81,146.25 181.04,145.98C181.5,145.44 181.96,145.3 182.71,145.51C190.08,147.56 197.46,149.56 204.84,151.55C205.57,151.75 205.89,152.09 205.94,152.85C206.1,155.19 205.84,157.49 205.2,159.72C205.02,160.34 204.52,160.92 204.05,161.38C201.02,164.34 197.99,167.3 194.88,170.17C193.97,171.01 193.76,171.81 194.11,172.92C194.34,173.63 194.39,174.41 194.68,175.1C195.17,176.26 194.71,177 193.91,177.82C183.34,188.65 172.79,199.52 162.24,210.37C143.36,229.8 124.49,249.23 105.61,268.66C88.83,285.92 72.04,303.17 55.29,320.46C54.1,321.69 52.78,322.64 51.23,323.34C47.57,325 43.79,325.98 39.78,326.02Z" style="fill:white;fill-rule:nonzero;"/>
        <path d="M163.99,3.67C169.93,3.55 175.79,4.17 181.55,5.69C194.46,9.09 204.3,16.61 211.31,27.9C215.35,34.41 218.05,41.49 220,48.86C223.46,61.96 226.82,75.08 230.26,88.19C230.61,89.51 230.5,90.64 229.88,91.86C227.52,96.45 226.27,101.38 225.65,106.47C225.34,109.05 225.03,111.66 225.06,114.26C225.1,118.42 225.34,122.59 225.66,126.75C225.77,128.16 226.24,129.61 226.83,130.91C228.63,134.86 230.18,138.94 232.59,142.59C232.62,142.64 232.64,142.69 232.67,142.74C233.48,144.1 233.49,144.11 234.58,143.06C236.59,141.13 238.59,139.2 240.6,137.27C240.81,137.07 241,136.85 241.22,136.66C241.94,136.05 242.13,136.09 242.36,136.98C243,139.45 243.59,141.92 244.2,144.4C245.36,149.06 246.49,153.73 247.71,158.38C247.98,159.41 247.83,160.1 247.05,160.84C243.62,164.05 218.24,188.39 212.88,193.53C211.83,194.53 210.81,195.56 209.75,196.55C209.38,196.9 208.94,197.17 208.54,197.47C208.34,197.02 208.08,196.58 207.95,196.1C207.36,193.86 206.81,191.61 206.25,189.36C205.09,184.69 203.97,180.02 202.77,175.37C202.49,174.27 202.69,173.55 203.54,172.78C205.69,170.83 207.68,168.71 209.87,166.82C211.45,165.46 212.31,163.81 212.82,161.85C213.94,157.52 214.1,153.14 213.45,148.74C212.71,143.73 211.43,138.87 209.08,134.34C207.89,132.06 206.4,130 204.51,128.25C199.84,123.92 192.83,123.24 187.67,128.01C186.26,129.31 184.88,130.63 183.47,131.92C182.63,132.7 182.47,132.65 182.18,131.52C180.79,126.2 179.41,120.87 178.04,115.54C176.47,109.43 174.94,103.3 173.31,97.21C173,96.06 173.29,95.44 174.13,94.68C176.8,92.28 179.51,89.9 181.96,87.28C186.22,82.73 188.32,77.15 189.17,71.02C190.1,64.27 188.67,57.9 186.43,51.61C182.88,41.61 177.96,32.43 170.71,24.6C165.53,19 159.54,14.5 152.59,11.31C152.27,11.17 151.96,11.02 151.63,10.9C151.11,10.7 150.95,10.37 151.1,9.81C151.49,8.36 151.87,6.9 152.18,5.42C152.34,4.66 152.68,4.37 153.45,4.31C155.94,4.15 158.41,3.89 160.9,3.72C161.9,3.61 162.94,3.67 163.99,3.67Z" style="fill:white;fill-rule:nonzero;"/>
        <path d="M211.18,13.73C214.67,14.68 218.02,15.61 221.37,16.51C225.57,17.64 229.73,18.86 233.69,20.7C241.18,24.18 247.21,29.37 252.02,36.03C257.32,43.36 260.74,51.58 263.08,60.24C265.94,70.8 268.64,81.41 271.39,92C271.55,92.6 271.6,93.22 271.71,93.83C271.1,93.73 270.48,93.68 269.9,93.52C259.56,90.68 249.24,87.81 238.89,85C237.76,84.69 237.25,84.21 236.94,83.02C233.58,70.01 230.21,57 226.68,44.04C224.65,36.57 221.64,29.47 217.45,22.94C215.64,20.12 213.42,17.57 211.39,14.9C211.25,14.72 211.07,14.56 210.93,14.38C210.83,14.24 210.78,14.08 210.7,13.92C210.9,13.84 211.09,13.76 211.18,13.73Z" style="fill:white;fill-rule:nonzero;"/>
        <path d="M215.24,202.06C221.36,196.21 248.89,169.92 252.41,166.47C253.22,165.67 253.93,165.52 255.01,165.82C265.49,168.75 275.98,171.63 286.47,174.52C286.58,174.55 286.7,174.56 286.81,174.59C287.81,174.9 287.84,175 287.07,175.74C281.55,181.04 276.02,186.33 270.5,191.63C263.51,198.33 256.51,205.02 249.55,211.76C248.69,212.59 247.95,212.76 246.8,212.44C236.43,209.53 226.05,206.69 215.66,203.82C213.93,203.34 213.92,203.32 215.24,202.06Z" style="fill:white;fill-rule:nonzero;"/>
        <path d="M238.85,93.12C239,93.17 239.27,93.27 239.55,93.34C250.37,96.3 261.19,99.27 272.01,102.23C272.23,102.29 272.45,102.4 272.67,102.44C273.43,102.57 273.43,103.01 273.16,103.57C273.08,103.73 273.02,103.89 272.95,104.05C270.65,108.92 269.47,114.08 268.79,119.39C268.35,122.8 268.33,126.2 268.44,129.62C268.48,130.89 268.43,130.91 267.19,130.56C259.71,128.49 252.23,126.44 244.78,124.29C243.52,123.93 242.74,124.2 241.89,125.07C240.11,126.9 238.26,128.65 236.42,130.41C235.75,131.05 235.75,131.01 235.25,130.18C233.57,127.36 232.89,124.3 233.01,121.03C233.05,119.87 233.04,118.71 233,117.56C232.82,111.56 233.22,105.62 235.09,99.88C235.75,97.85 236.73,95.93 237.59,93.97C237.78,93.51 238.05,93.03 238.85,93.12Z" style="fill:white;fill-rule:nonzero;"/>
        <path d="M290,166.45C290.06,167.38 289.56,167.21 289.1,167.09C285.92,166.21 282.73,165.33 279.55,164.45C272.06,162.38 264.59,160.28 257.09,158.25C256.05,157.97 255.54,157.51 255.29,156.48C253.63,149.61 251.91,142.76 250.22,135.89C249.73,133.89 249.75,133.89 251.69,134.42C261.97,137.25 272.24,140.12 282.54,142.89C283.84,143.24 284.42,143.85 284.73,145.14C286.36,151.96 288.08,158.75 289.77,165.56C289.84,165.9 289.94,166.23 290,166.45Z" style="fill:white;fill-rule:nonzero;"/>
        <path d="M203.96,142.55C203.85,142.63 203.75,142.77 203.62,142.8C203.46,142.83 203.28,142.78 203.11,142.74C198.38,141.43 193.64,140.12 188.91,138.79C188.04,138.55 188.01,138.44 188.62,137.86C190.04,136.5 191.44,135.12 192.93,133.83C194.97,132.07 196.94,132.09 199,133.88C199.69,134.48 200.39,135.16 200.83,135.95C201.86,137.81 202.75,139.76 203.68,141.68C203.8,141.92 203.85,142.21 203.96,142.55Z" style="fill:white;fill-rule:nonzero;"/>
    </g>


  </g>
</svg>