<?xml version="1.0" encoding="utf-8"?>
<!-- Generator: Adobe Illustrator 27.0.1, SVG Export Plug-In . SVG Version: 6.00 Build 0)  -->
<svg version="1.1" id="Layer_1" xmlns="http://www.w3.org/2000/svg" xmlns:xlink="http://www.w3.org/1999/xlink" x="0px" y="0px"
	 viewBox="0 0 293 329.67" style="enable-background:new 0 0 293 329.67;" xml:space="preserve">
<style type="text/css">
	.st0{fill:#FFFFFF;}
</style>
<g>
	<path class="st0" d="M175.98,139.17c-0.22,0.31-0.47,0.74-0.79,1.11c-7.06,8.16-14.81,15.66-22.31,23.4
		c-22.49,23.2-45.03,46.35-67.55,69.51c-18.69,19.21-37.38,38.41-56.07,57.62c-4.33,4.45-8.65,8.9-12.98,13.35
		c-0.28,0.29-0.56,0.58-0.85,0.87c-0.41,0.42-0.65,0.34-0.79-0.24c-0.75-3.04-1.53-6.06-2.29-9.1c-3.09-12.41-6.16-24.82-9.29-37.22
		c-0.19-0.77,0.13-1.04,0.55-1.44c3.27-3.12,6.54-6.25,9.81-9.38c32.52-31.04,65.04-62.08,97.56-93.12
		c18.04-17.22,36.08-34.45,54.12-51.68c0.17-0.16,0.33-0.33,0.5-0.48c0.65-0.57,0.72-0.57,0.95,0.29c1.1,4.14,2.18,8.28,3.25,12.43
		c1.95,7.56,3.88,15.13,5.82,22.69C175.72,138.17,175.82,138.56,175.98,139.17z"/>
	<path class="st0" d="M39.78,326.02c-6.07,0.01-11.31-2.24-15.9-6.06c-1.82-1.51-3.43-3.28-5.08-4.98c-1.07-1.1-1.12-1.05,0.14-2.34
		c2.59-2.66,5.17-5.32,7.76-7.99c33.37-34.3,66.73-68.61,100.1-102.91c17.84-18.34,35.67-36.67,53.51-55.01
		c0.24-0.25,0.5-0.48,0.73-0.75c0.46-0.54,0.92-0.68,1.67-0.47c7.37,2.05,14.75,4.05,22.13,6.04c0.73,0.2,1.05,0.54,1.1,1.3
		c0.16,2.34-0.1,4.64-0.74,6.87c-0.18,0.62-0.68,1.2-1.15,1.66c-3.03,2.96-6.06,5.92-9.17,8.79c-0.91,0.84-1.12,1.64-0.77,2.75
		c0.23,0.71,0.28,1.49,0.57,2.18c0.49,1.16,0.03,1.9-0.77,2.72c-10.57,10.83-21.12,21.7-31.67,32.55
		c-18.88,19.43-37.75,38.86-56.63,58.29c-16.78,17.26-33.57,34.51-50.32,51.8c-1.19,1.23-2.51,2.18-4.06,2.88
		C47.57,325,43.79,325.98,39.78,326.02z"/>
	<path class="st0" d="M163.99,3.67c5.94-0.12,11.8,0.5,17.56,2.02c12.91,3.4,22.75,10.92,29.76,22.21
		c4.04,6.51,6.74,13.59,8.69,20.96c3.46,13.1,6.82,26.22,10.26,39.33c0.35,1.32,0.24,2.45-0.38,3.67
		c-2.36,4.59-3.61,9.52-4.23,14.61c-0.31,2.58-0.62,5.19-0.59,7.79c0.04,4.16,0.28,8.33,0.6,12.49c0.11,1.41,0.58,2.86,1.17,4.16
		c1.8,3.95,3.35,8.03,5.76,11.68c0.03,0.05,0.05,0.1,0.08,0.15c0.81,1.36,0.82,1.37,1.91,0.32c2.01-1.93,4.01-3.86,6.02-5.79
		c0.21-0.2,0.4-0.42,0.62-0.61c0.72-0.61,0.91-0.57,1.14,0.32c0.64,2.47,1.23,4.94,1.84,7.42c1.16,4.66,2.29,9.33,3.51,13.98
		c0.27,1.03,0.12,1.72-0.66,2.46c-3.43,3.21-6.8,6.47-10.2,9.72c-0.21,0.2-0.39,0.47-0.64,0.57c-0.19,0.08-0.58,0.02-0.68-0.12
		c-0.23-0.32-0.34-0.73-0.49-1.1c-1.94-4.65-3.95-9.28-5.78-13.97c-1-2.56-4.1-2.92-5.79-1.7c-1.35,0.97-1.8,2.58-1.15,4.54
		c0.22,0.66,0.55,1.27,0.82,1.91c2.1,4.96,4.19,9.93,6.28,14.89c0.61,1.46,0.63,1.49-0.47,2.54c-5.35,5.15-10.71,10.27-16.07,15.41
		c-1.05,1-2.07,2.03-3.13,3.02c-0.37,0.35-0.81,0.62-1.21,0.92c-0.2-0.45-0.46-0.89-0.59-1.37c-0.59-2.24-1.14-4.49-1.7-6.74
		c-1.16-4.67-2.28-9.34-3.48-13.99c-0.28-1.1-0.08-1.82,0.77-2.59c2.15-1.95,4.14-4.07,6.33-5.96c1.58-1.36,2.44-3.01,2.95-4.97
		c1.12-4.33,1.28-8.71,0.63-13.11c-0.74-5.01-2.02-9.87-4.37-14.4c-1.19-2.28-2.68-4.34-4.57-6.09c-4.67-4.33-11.68-5.01-16.84-0.24
		c-1.41,1.3-2.79,2.62-4.2,3.91c-0.84,0.78-1,0.73-1.29-0.4c-1.39-5.32-2.77-10.65-4.14-15.98c-1.57-6.11-3.1-12.24-4.73-18.33
		c-0.31-1.15-0.02-1.77,0.82-2.53c2.67-2.4,5.38-4.78,7.83-7.4c4.26-4.55,6.36-10.13,7.21-16.26c0.93-6.75-0.5-13.12-2.74-19.41
		c-3.55-10-8.47-19.18-15.72-27.01c-5.18-5.6-11.17-10.1-18.12-13.29c-0.32-0.14-0.63-0.29-0.96-0.41c-0.52-0.2-0.68-0.53-0.53-1.09
		c0.39-1.45,0.77-2.91,1.08-4.39c0.16-0.76,0.5-1.05,1.27-1.11c2.49-0.16,4.96-0.42,7.45-0.59C161.9,3.61,162.94,3.67,163.99,3.67z"
		/>
	<path class="st0" d="M211.18,13.73c3.49,0.95,6.84,1.88,10.19,2.78c4.2,1.13,8.36,2.35,12.32,4.19
		c7.49,3.48,13.52,8.67,18.33,15.33c5.3,7.33,8.72,15.55,11.06,24.21c2.86,10.56,5.56,21.17,8.31,31.76
		c0.16,0.6,0.21,1.22,0.32,1.83c-0.61-0.1-1.23-0.15-1.81-0.31c-10.34-2.84-20.66-5.71-31.01-8.52c-1.13-0.31-1.64-0.79-1.95-1.98
		c-3.36-13.01-6.73-26.02-10.26-38.98c-2.03-7.47-5.04-14.57-9.23-21.1c-1.81-2.82-4.03-5.37-6.06-8.04
		c-0.14-0.18-0.32-0.34-0.46-0.52c-0.1-0.14-0.15-0.3-0.23-0.46C210.9,13.84,211.09,13.76,211.18,13.73z"/>
	<path class="st0" d="M260.09,186.11c0.02-1.91-0.79-2.92-2.64-3.44c-4.29-1.22-8.59-2.4-12.89-3.6c-1.12-0.31-2.23-0.61-3.35-0.93
		c-0.43-0.12-0.59-0.35-0.23-0.72c0.24-0.25,0.5-0.49,0.75-0.73c3.57-3.4,7.16-6.77,10.68-10.22c0.81-0.8,1.52-0.95,2.6-0.65
		c10.48,2.93,20.97,5.81,31.46,8.7c0.11,0.03,0.23,0.04,0.34,0.07c1,0.31,1.03,0.41,0.26,1.15c-5.52,5.3-11.05,10.59-16.57,15.89
		c-6.99,6.7-13.99,13.39-20.95,20.13c-0.86,0.83-1.6,1-2.75,0.68c-10.37-2.91-20.75-5.75-31.14-8.62c-1.73-0.48-1.74-0.5-0.42-1.76
		c6.12-5.85,12.26-11.67,18.36-17.55c0.82-0.79,1.51-0.95,2.61-0.63c5.95,1.74,11.92,3.37,17.89,5.05c1.46,0.41,2.86,0.3,4.23-0.32
		C259.53,188.08,260.05,187.11,260.09,186.11z"/>
	<path class="st0" d="M238.85,93.12c0.15,0.05,0.42,0.15,0.7,0.22c10.82,2.96,21.64,5.93,32.46,8.89c0.22,0.06,0.44,0.17,0.66,0.21
		c0.76,0.13,0.76,0.57,0.49,1.13c-0.08,0.16-0.14,0.32-0.21,0.48c-2.3,4.87-3.48,10.03-4.16,15.34c-0.44,3.41-0.46,6.81-0.35,10.23
		c0.04,1.27-0.01,1.29-1.25,0.94c-7.48-2.07-14.96-4.12-22.41-6.27c-1.26-0.36-2.04-0.09-2.89,0.78c-1.78,1.83-3.63,3.58-5.47,5.34
		c-0.67,0.64-0.67,0.6-1.17-0.23c-1.68-2.82-2.36-5.88-2.24-9.15c0.04-1.16,0.03-2.32-0.01-3.47c-0.18-6,0.22-11.94,2.09-17.68
		c0.66-2.03,1.64-3.95,2.5-5.91C237.78,93.51,238.05,93.03,238.85,93.12z"/>
	<path class="st0" d="M290,166.45c0.06,0.93-0.44,0.76-0.9,0.64c-3.18-0.88-6.37-1.76-9.55-2.64c-7.49-2.07-14.96-4.17-22.46-6.2
		c-1.04-0.28-1.55-0.74-1.8-1.77c-1.66-6.87-3.38-13.72-5.07-20.59c-0.49-2-0.47-2,1.47-1.47c10.28,2.83,20.55,5.7,30.85,8.47
		c1.3,0.35,1.88,0.96,2.19,2.25c1.63,6.82,3.35,13.61,5.04,20.42C289.84,165.9,289.94,166.23,290,166.45z"/>
	<path class="st0" d="M203.96,142.55c-0.11,0.08-0.21,0.22-0.34,0.25c-0.16,0.03-0.34-0.02-0.51-0.06
		c-4.73-1.31-9.47-2.62-14.2-3.95c-0.87-0.24-0.9-0.35-0.29-0.93c1.42-1.36,2.82-2.74,4.31-4.03c2.04-1.76,4.01-1.74,6.07,0.05
		c0.69,0.6,1.39,1.28,1.83,2.07c1.03,1.86,1.92,3.81,2.85,5.73C203.8,141.92,203.85,142.21,203.96,142.55z"/>
</g>
</svg>
